<mxfile host="app.diagrams.net" modified="2024-04-25T08:36:59.634Z" agent="Mozilla/5.0 (Macintosh; Intel Mac OS X 10_15_7) AppleWebKit/537.36 (KHTML, like Gecko) Chrome/105.0.0.0 Safari/537.36" version="24.2.3" etag="IrGrNodLy6tNu1RejWU1" type="github">
  <diagram name="第 1 页" id="M4Z7CPg7vqah8RzwAXsi">
    <mxGraphModel>
      <root>
        <mxCell id="0" />
        <mxCell id="1" parent="0" />
      </root>
    </mxGraphModel>
  </diagram>
</mxfile>
